<?xml version="1.0" encoding="UTF-8"?>
<svg version="1.1" xmlns="http://www.w3.org/2000/svg" width="400" height="100">
<path d="M0 0 C132 0 264 0 400 0 C400 33 400 66 400 100 C268 100 136 100 0 100 C0 67 0 34 0 0 Z " fill="#1B1B1B" transform="translate(0,0)"/>
<path d="M0 0 C29.90356545 -0.0227944 59.8071306 -0.04050027 89.71070286 -0.05106533 C93.23812484 -0.05231609 96.7655468 -0.05361041 100.29296875 -0.05493164 C101.34637353 -0.05532511 101.34637353 -0.05532511 102.42105921 -0.05572652 C113.80403057 -0.06008222 125.18699691 -0.06796923 136.56996529 -0.0771528 C148.24300283 -0.0864921 159.91603744 -0.09198131 171.58907855 -0.09408849 C178.14855673 -0.09539553 184.70802349 -0.09848098 191.26749802 -0.10573006 C197.4348181 -0.11249087 203.60212199 -0.11461683 209.76944542 -0.11310768 C212.03908692 -0.11338398 214.30872893 -0.11538874 216.57836723 -0.11920547 C219.66492579 -0.12414366 222.75142234 -0.1229978 225.83798218 -0.12025452 C226.74652934 -0.12316736 227.65507651 -0.1260802 228.59115541 -0.12908131 C234.77175758 -0.11412121 234.77175758 -0.11412121 237 1 C237 24.43 237 47.86 237 72 C236.34 72 235.68 72 235 72 C235 49.23 235 26.46 235 3 C158.11 3 81.22 3 2 3 C2 31.38 2 59.76 2 89 C44.24 89 86.48 89 130 89 C130 89.99 130 90.98 130 92 C113.21503252 92.02333718 96.43007008 92.04098321 79.6450901 92.05181217 C71.85192956 92.05697338 64.05877908 92.06401277 56.265625 92.07543945 C49.47489267 92.08539161 42.68416763 92.0918547 35.89342821 92.09408849 C32.29618768 92.09539469 28.69896802 92.09847484 25.10173416 92.10573006 C21.09076249 92.11375448 17.07982732 92.11399079 13.06884766 92.11352539 C11.86979294 92.11712067 10.67073822 92.12071594 9.43534851 92.12442017 C8.34717331 92.1230455 7.25899811 92.12167084 6.1378479 92.12025452 C5.18840113 92.12117631 4.23895435 92.1220981 3.26073647 92.12304783 C1 92 1 92 -1 91 C-1.02313398 79.43038672 -1.0409205 67.8607789 -1.05181217 56.29114723 C-1.05703868 50.91935028 -1.06413214 45.54756911 -1.07543945 40.17578125 C-1.08627654 34.99517028 -1.09227859 29.81457452 -1.09487724 24.63395309 C-1.09673 22.65393204 -1.10034778 20.67391185 -1.10573006 18.69389725 C-1.11295136 15.92823717 -1.11399048 13.16264059 -1.11352539 10.39697266 C-1.11712067 9.57194748 -1.12071594 8.7469223 -1.12442017 7.89689636 C-1.11405216 2.22810432 -1.11405216 2.22810432 0 0 Z " fill="#FDFDFD" transform="translate(86,0)"/>
<path d="M0 0 C2.2644043 -0.00537109 2.2644043 -0.00537109 5 1 C6.53327084 3.73004986 7.66611344 6.18501559 8.76953125 9.0859375 C9.25833015 10.30502304 9.25833015 10.30502304 9.75700378 11.54873657 C10.44250126 13.2684346 11.1185714 14.99191598 11.78588867 16.71875 C12.80858183 19.36486214 13.85747013 21.99929094 14.91210938 24.6328125 C15.57446823 26.30407341 16.23532661 27.97592994 16.89453125 29.6484375 C17.20695267 30.43914642 17.51937408 31.22985535 17.84126282 32.04452515 C20 37.64557504 20 37.64557504 20 41 C18.35 41 16.7 41 15 41 C13.68 37.7 12.36 34.4 11 31 C5.06 30.67 -0.88 30.34 -7 30 C-7.7115625 32.1346875 -7.7115625 32.1346875 -8.4375 34.3125 C-9.29166667 36.875 -10.14583333 39.4375 -11 42 C-12.65 42 -14.3 42 -16 42 C-15.28860399 37.16334901 -13.47096578 32.90608971 -11.62109375 28.41796875 C-11.28956802 27.60378983 -10.9580423 26.7896109 -10.61647034 25.95075989 C-9.56095654 23.36129258 -8.49932275 20.7743858 -7.4375 18.1875 C-6.71899531 16.42789999 -6.00089179 14.66813612 -5.28320312 12.90820312 C-3.52677761 8.60355636 -1.76486066 4.30119494 0 0 Z " fill="#F2F2F2" transform="translate(248,25)"/>
<path d="M0 0 C1.65 0 3.3 0 5 0 C5.01458252 0.88260498 5.02916504 1.76520996 5.04418945 2.67456055 C5.10542067 5.96438643 5.1796033 9.2533993 5.26245117 12.54272461 C5.29560557 13.96351202 5.32366692 15.38442813 5.34643555 16.80541992 C5.38015847 18.8539082 5.43247745 20.9012272 5.48828125 22.94921875 C5.51446533 24.17987061 5.54064941 25.41052246 5.56762695 26.6784668 C6.03316526 30.25477885 6.83546901 32.14407038 9 35 C12.25860909 37.17240606 12.82050803 37.23564158 16.5 36.8125 C17.2734375 36.73644531 18.046875 36.66039062 18.84375 36.58203125 C21.40630437 35.89032726 22.3758204 35.0747904 24 33 C25.14294314 29.57117059 25.20964472 26.75917162 25.31640625 23.14453125 C25.33718735 22.48289474 25.35796844 21.82125824 25.37937927 21.13957214 C25.44464727 19.03065148 25.50365344 16.92160865 25.5625 14.8125 C25.60570689 13.38084685 25.64932188 11.94920596 25.69335938 10.51757812 C25.80030506 7.01184846 25.90163641 3.50598214 26 0 C27.65 0 29.3 0 31 0 C31.12456859 4.26829471 31.2147864 8.53559796 31.2746582 12.80517578 C31.29964236 14.25425674 31.33364269 15.70321375 31.37719727 17.15185547 C31.83399976 32.74763015 31.83399976 32.74763015 26 39 C22.76501084 42.04469568 19.8606071 42.24556829 15.5625 42.4375 C10.58931606 42.27707471 7.70568354 41.52491849 4 38 C-1.49240188 31.19702499 -0.44844541 23.36257307 -0.25 15.0625 C-0.22990977 13.60093585 -0.21166344 12.13934514 -0.1953125 10.67773438 C-0.15150336 7.11793226 -0.08261546 3.55913746 0 0 Z " fill="#F0F0F0" transform="translate(150,25)"/>
<path d="M0 0 C0.598125 0.20625 1.19625 0.4125 1.8125 0.625 C0.8225 0.625 -0.1675 0.625 -1.1875 0.625 C-1.5175 2.935 -1.8475 5.245 -2.1875 7.625 C-0.5375 7.295 1.1125 6.965 2.8125 6.625 C3.1425 4.975 3.4725 3.325 3.8125 1.625 C3.93625 2.181875 4.06 2.73875 4.1875 3.3125 C4.87226855 5.84614364 5.80383763 8.20421032 6.8125 10.625 C8.1325 10.295 9.4525 9.965 10.8125 9.625 C11.1425 10.615 11.4725 11.605 11.8125 12.625 C12.1425 11.965 12.4725 11.305 12.8125 10.625 C14.8125 11.625 14.8125 11.625 15.8125 12.625 C17.1325 8.665 18.4525 4.705 19.8125 0.625 C20.4725 0.625 21.1325 0.625 21.8125 0.625 C21.5959375 1.65560547 21.5959375 1.65560547 21.375 2.70703125 C21.189375 3.60808594 21.00375 4.50914063 20.8125 5.4375 C20.626875 6.33082031 20.44125 7.22414063 20.25 8.14453125 C19.72565157 10.69760693 19.72565157 10.69760693 19.8125 13.625 C21.52090281 11.99087557 22.74703047 10.75593906 23.8125 8.625 C24.4725 8.955 25.1325 9.285 25.8125 9.625 C25.8125 10.615 25.8125 11.605 25.8125 12.625 C26.8025 11.635 27.7925 10.645 28.8125 9.625 C29.8025 10.285 30.7925 10.945 31.8125 11.625 C33.86086882 11.06137698 33.86086882 11.06137698 35.8125 9.625 C36.47022428 6.59565509 36.47022428 6.59565509 36.8125 3.625 C37.4725 3.295 38.1325 2.965 38.8125 2.625 C38.01205148 8.54831903 36.42727806 13.7041471 34.8125 19.625 C21.6125 19.625 8.4125 19.625 -5.1875 19.625 C-4.8575 14.675 -4.5275 9.725 -4.1875 4.625 C-4.8475 5.285 -5.5075 5.945 -6.1875 6.625 C-5.875 4.25 -5.875 4.25 -5.1875 1.625 C-2.1875 -0.375 -2.1875 -0.375 0 0 Z " fill="#323232" transform="translate(226.1875,80.375)"/>
<path d="M0 0 C1.65 0 3.3 0 5 0 C5.07447267 4.58980814 5.12875322 9.17926014 5.16479492 13.76953125 C5.17982869 15.32916394 5.20026135 16.88875472 5.22631836 18.44824219 C5.26294211 20.69737116 5.27978021 22.94593847 5.29296875 25.1953125 C5.30845261 25.8861795 5.32393646 26.57704651 5.33988953 27.28884888 C5.34148323 31.93247078 4.46599477 35.06944447 2 39 C-1.85857885 41.69203176 -5.39781142 42.61487589 -10.03515625 42.41015625 C-13.84353818 41.61516599 -15.43869913 39.93612538 -18 37 C-18.875 33.1875 -18.875 33.1875 -19 30 C-17.68 30 -16.36 30 -15 30 C-14.34 31.98 -13.68 33.96 -13 36 C-11.14375 36.3403125 -11.14375 36.3403125 -9.25 36.6875 C-8.20585938 36.87892578 -8.20585938 36.87892578 -7.140625 37.07421875 C-4.09472454 36.96861271 -3.11341442 36.1957834 -1 34 C-0.57353999 31.29571712 -0.3951959 28.9787448 -0.390625 26.26953125 C-0.37408875 25.51911057 -0.35755249 24.76868988 -0.34051514 23.99552917 C-0.29196948 21.60110344 -0.27065115 19.20731298 -0.25 16.8125 C-0.22184557 15.18811897 -0.19191888 13.56376761 -0.16015625 11.93945312 C-0.08620961 7.95968773 -0.03667583 3.98027633 0 0 Z " fill="#EBEBEB" transform="translate(135,25)"/>
<path d="M0 0 C1.65 0 3.3 0 5 0 C5 12.21 5 24.42 5 37 C10.28 37 15.56 37 21 37 C21 38.65 21 40.3 21 42 C14.07 42 7.14 42 0 42 C0 28.14 0 14.28 0 0 Z " fill="#E6E6E6" transform="translate(191,25)"/>
<path d="M0 0 C1.65 0 3.3 0 5 0 C5 13.86 5 27.72 5 42 C3.35 42 1.7 42 0 42 C0 28.14 0 14.28 0 0 Z " fill="#EDEDED" transform="translate(220,25)"/>
<path d="M0 0 C5.75 -0.125 5.75 -0.125 8 1 C8 3.64 8 6.28 8 9 C8.66 9 9.32 9 10 9 C10 10.32 10 11.64 10 13 C10.99 12.34 11.98 11.68 13 11 C13 12.98 13 14.96 13 17 C10.0625 16.625 10.0625 16.625 7 16 C6.67 15.34 6.34 14.68 6 14 C5.278125 14.99 4.55625 15.98 3.8125 17 C2.58203125 18.6875 2.58203125 18.6875 1 20 C-1.67578125 20.1875 -1.67578125 20.1875 -4 20 C-3.52362901 17.22865934 -3.04402451 14.45794567 -2.5625 11.6875 C-2.42779297 10.90181641 -2.29308594 10.11613281 -2.15429688 9.30664062 C-2.02216797 8.54931641 -1.89003906 7.79199219 -1.75390625 7.01171875 C-1.63345947 6.31522217 -1.5130127 5.61872559 -1.38891602 4.90112305 C-1 3 -1 3 0 0 Z " fill="#505050" transform="translate(273,80)"/>
<path d="M0 0 C2.56679483 2.56679483 3.33348554 5.05010682 4.625 8.4375 C5.07101563 9.59121094 5.51703125 10.74492188 5.9765625 11.93359375 C7 15 7 15 7 18 C2.38 18 -2.24 18 -7 18 C-5.02989474 11.79416842 -2.74844552 5.90148454 0 0 Z " fill="#272727" transform="translate(250,33)"/>
<path d="M0 0 C0.598125 0.20625 1.19625 0.4125 1.8125 0.625 C0.8225 0.625 -0.1675 0.625 -1.1875 0.625 C-1.5175 2.935 -1.8475 5.245 -2.1875 7.625 C-0.5375 7.295 1.1125 6.965 2.8125 6.625 C3.1425 4.975 3.4725 3.325 3.8125 1.625 C5.02773916 5.97219701 5.39821002 10.13730633 4.8125 14.625 C3.1875 17.125 3.1875 17.125 0.8125 18.625 C-1.1675 18.955 -3.1475 19.285 -5.1875 19.625 C-4.8575 14.675 -4.5275 9.725 -4.1875 4.625 C-4.8475 5.285 -5.5075 5.945 -6.1875 6.625 C-5.875 4.25 -5.875 4.25 -5.1875 1.625 C-2.1875 -0.375 -2.1875 -0.375 0 0 Z " fill="#1D1D1D" transform="translate(226.1875,80.375)"/>
<path d="M0 0 C1.46726798 3.81489674 0.43336419 6.29011622 -1 10 C0.32 10.33 1.64 10.66 3 11 C3.66 10.01 4.32 9.02 5 8 C5.66 9.65 6.32 11.3 7 13 C6.01 13.495 6.01 13.495 5 14 C4.34444881 16.52733235 4.34444881 16.52733235 4 19 C1.03 19 -1.94 19 -5 19 C-5 17.68 -5 16.36 -5 15 C-5.99 14.67 -6.98 14.34 -8 14 C-8 13.34 -8 12.68 -8 12 C-8.99 12 -9.98 12 -11 12 C-11.33 12.66 -11.66 13.32 -12 14 C-11.67 12.68 -11.34 11.36 -11 10 C-9.02 10.495 -9.02 10.495 -7 11 C-6.67 10.01 -6.34 9.02 -6 8 C-4.68 8.33 -3.36 8.66 -2 9 C-1.855625 7.88625 -1.71125 6.7725 -1.5625 5.625 C-1 2 -1 2 0 0 Z " fill="#1F1F1F" transform="translate(299,81)"/>
<path d="M0 0 C0.66 0 1.32 0 2 0 C1.855625 0.68707031 1.71125 1.37414062 1.5625 2.08203125 C1.376875 2.98308594 1.19125 3.88414063 1 4.8125 C0.814375 5.70582031 0.62875 6.59914063 0.4375 7.51953125 C-0.08684843 10.07260693 -0.08684843 10.07260693 0 13 C1.70840281 11.36587557 2.93453047 10.13093906 4 8 C4.66 8.33 5.32 8.66 6 9 C5.67 10.98 5.34 12.96 5 15 C3.88625 15.12375 2.7725 15.2475 1.625 15.375 C-2.03103677 15.6465813 -2.03103677 15.6465813 -4 18 C-4 17.01 -4 16.02 -4 15 C-6.97 14.67 -9.94 14.34 -13 14 C-12.67 12.68 -12.34 11.36 -12 10 C-11.01 9.67 -10.02 9.34 -9 9 C-8.67 9.99 -8.34 10.98 -8 12 C-7.67 11.34 -7.34 10.68 -7 10 C-5 11 -5 11 -4 12 C-2.68 8.04 -1.36 4.08 0 0 Z " fill="#949494" transform="translate(246,81)"/>
<path d="M0 0 C0.598125 0.20625 1.19625 0.4125 1.8125 0.625 C0.8225 0.625 -0.1675 0.625 -1.1875 0.625 C-1.5175 2.935 -1.8475 5.245 -2.1875 7.625 C-0.5375 7.295 1.1125 6.965 2.8125 6.625 C3.1425 4.975 3.4725 3.325 3.8125 1.625 C4.49957555 4.11564888 4.8125 6.00386292 4.8125 8.625 C3.69875 8.955 2.585 9.285 1.4375 9.625 C-1.03546679 10.64915796 -1.96517372 11.14122564 -3.09765625 13.60546875 C-3.71906564 16.06306744 -3.71906564 16.06306744 -4.1875 19.625 C-4.5175 19.625 -4.8475 19.625 -5.1875 19.625 C-4.8575 14.675 -4.5275 9.725 -4.1875 4.625 C-4.8475 5.285 -5.5075 5.945 -6.1875 6.625 C-5.875 4.25 -5.875 4.25 -5.1875 1.625 C-2.1875 -0.375 -2.1875 -0.375 0 0 Z " fill="#8D8D8D" transform="translate(226.1875,80.375)"/>
<path d="M0 0 C1.67641098 4.09086452 0.2409319 7.71511018 -0.9375 11.75 C-1.13279297 12.44738281 -1.32808594 13.14476563 -1.52929688 13.86328125 C-2.0108246 15.57798973 -2.50425157 17.28934877 -3 19 C-3.66 18.67 -4.32 18.34 -5 18 C-5 17.01 -5 16.02 -5 15 C-5.99 14.67 -6.98 14.34 -8 14 C-8 13.34 -8 12.68 -8 12 C-8.99 12 -9.98 12 -11 12 C-11.33 12.66 -11.66 13.32 -12 14 C-11.67 12.68 -11.34 11.36 -11 10 C-9.02 10.495 -9.02 10.495 -7 11 C-6.67 10.01 -6.34 9.02 -6 8 C-4.68 8.33 -3.36 8.66 -2 9 C-1.855625 7.88625 -1.71125 6.7725 -1.5625 5.625 C-1 2 -1 2 0 0 Z " fill="#707070" transform="translate(299,81)"/>
<path d="M0 0 C1.77706209 2.66559313 2.87548273 5.0280615 4 8 C2.02 8.99 2.02 8.99 0 10 C0 8.35 0 6.7 0 5 C-0.433125 5.495 -0.86625 5.99 -1.3125 6.5 C-3 8 -3 8 -6 8 C-6.33 6.02 -6.66 4.04 -7 2 C-5.68 1.67 -4.36 1.34 -3 1 C-3 2.32 -3 3.64 -3 5 C-2.01 3.35 -1.02 1.7 0 0 Z " fill="#8E8E8E" transform="translate(313,88)"/>
<path d="M0 0 C0.625 1.75 0.625 1.75 1 4 C0.34241884 5.33783753 -0.32563747 6.67054244 -1 8 C-1.42151885 9.57158878 -1.7968834 11.15629082 -2.125 12.75 C-2.37636719 13.94882813 -2.37636719 13.94882813 -2.6328125 15.171875 C-2.75398438 15.77515625 -2.87515625 16.3784375 -3 17 C-4 14 -4 14 -4 12 C-4.99 11.67 -5.98 11.34 -7 11 C-5.625 9 -5.625 9 -4 7 C-3.34 7 -2.68 7 -2 7 C-1.855625 6.030625 -1.71125 5.06125 -1.5625 4.0625 C-1 1 -1 1 0 0 Z " fill="#9B9B9B" transform="translate(264,83)"/>
<path d="M0 0 C1.5 1.375 1.5 1.375 3 3 C3 3.66 3 4.32 3 5 C2.01 5.495 2.01 5.495 1 6 C0.34444881 8.52733235 0.34444881 8.52733235 0 11 C-0.33 11 -0.66 11 -1 11 C-1 9.02 -1 7.04 -1 5 C-2.32 5.33 -3.64 5.66 -5 6 C-4.67 4.68 -4.34 3.36 -4 2 C-3.01 2.33 -2.02 2.66 -1 3 C-0.67 2.01 -0.34 1.02 0 0 Z " fill="#A5A5A5" transform="translate(303,89)"/>
<path d="M0 0 C1.65 0 3.3 0 5 0 C4.67 1.98 4.34 3.96 4 6 C2.35 6.33 0.7 6.66 -1 7 C-0.67 4.69 -0.34 2.38 0 0 Z " fill="#262626" transform="translate(225,81)"/>
<path d="M0 0 C1.67641098 4.09086452 0.2409319 7.71511018 -0.9375 11.75 C-1.13279297 12.44738281 -1.32808594 13.14476563 -1.52929688 13.86328125 C-2.0108246 15.57798973 -2.50425157 17.28934877 -3 19 C-3.66 18.67 -4.32 18.34 -5 18 C-4.42934122 11.58008874 -2.32655091 5.98410537 0 0 Z " fill="#969696" transform="translate(299,81)"/>
<path d="M0 0 C1.65 0 3.3 0 5 0 C5 1.65 5 3.3 5 5 C3.35 5 1.7 5 0 5 C0 3.35 0 1.7 0 0 Z " fill="#F3F3F3" transform="translate(274,61)"/>
<path d="M0 0 C0.598125 0.20625 1.19625 0.4125 1.8125 0.625 C0.8225 0.625 -0.1675 0.625 -1.1875 0.625 C-1.1875 2.275 -1.1875 3.925 -1.1875 5.625 C-2.1775 5.295 -3.1675 4.965 -4.1875 4.625 C-4.8475 5.285 -5.5075 5.945 -6.1875 6.625 C-5.875 4.25 -5.875 4.25 -5.1875 1.625 C-2.1875 -0.375 -2.1875 -0.375 0 0 Z " fill="#767676" transform="translate(226.1875,80.375)"/>
<path d="M0 0 C0.66 0 1.32 0 2 0 C1.71788123 1.6266848 1.42397625 3.25132896 1.125 4.875 C0.96257812 5.77992187 0.80015625 6.68484375 0.6328125 7.6171875 C0 10 0 10 -2 12 C-3.40907283 9.18185434 -2.50872691 7.82722796 -1.5625 4.875 C-1.27503906 3.96492188 -0.98757812 3.05484375 -0.69140625 2.1171875 C-0.46324219 1.41851562 -0.23507813 0.71984375 0 0 Z " fill="#8E8E8E" transform="translate(246,81)"/>
</svg>
